<svg width="665" height="396" viewBox="0 0 665 396" fill="none" xmlns="http://www.w3.org/2000/svg">
<path d="M298.212 388.949C293.246 388.944 288.36 390.206 284.017 392.616H312.371C308.042 390.207 303.168 388.945 298.212 388.949V388.949Z" fill="#E6E6E6"/>
<path d="M353.234 385.282C344.937 385.272 336.842 387.834 330.063 392.616H376.374C369.604 387.84 361.52 385.278 353.234 385.282V385.282Z" fill="#E6E6E6"/>
<path d="M664.904 338.857C662.832 301.298 632.649 270.675 595.113 268.109C577.81 266.893 560.619 271.694 546.451 281.699C532.283 291.703 522.009 306.297 517.37 323.007C516.459 322.974 515.549 322.937 514.63 322.937C498.384 322.94 482.576 328.202 469.571 337.936C456.565 347.669 447.062 361.351 442.481 376.934C431.716 372.205 419.687 371.179 408.276 374.017C396.865 376.855 386.718 383.396 379.424 392.616H613.983C642.8 392.616 666.133 368.753 664.957 339.966C664.942 339.597 664.925 339.227 664.904 338.857Z" fill="#E6E6E6"/>
<path d="M658.812 391.84H0V393.392H658.812V391.84Z" fill="#3F3D56"/>
<path d="M219.871 139.833C219.871 139.833 189.969 130.521 194.559 145.842C199.149 161.163 224.336 153.424 224.336 153.424L219.871 139.833Z" fill="#FFB8B8"/>
<path d="M334.176 82.3254C334.176 82.3254 318.851 61.3885 303.963 83.1236C289.045 104.901 275.175 122.78 275.175 122.78L238.125 134.857L216.691 136.759L222.595 155.812L284.918 146.772C284.918 146.772 354.302 105.565 334.176 82.3254Z" fill="#2F2E41"/>
<path d="M265.775 198.273C265.775 198.273 242.496 214.565 244.048 229.306C245.6 244.046 255.687 284.389 255.687 284.389L276.639 281.286C276.639 281.286 278.967 250.253 271.207 238.616L308.455 217.668L265.775 198.273Z" fill="#FFB8B8"/>
<path d="M317.378 236.676C317.378 236.676 315.826 265.381 319.706 277.019C323.586 288.656 327.466 332.102 327.466 332.102H349.194C349.194 332.102 359.282 294.087 346.866 277.019C346.866 277.019 342.986 254.52 353.85 243.658L317.378 236.676Z" fill="#FFB8B8"/>
<path d="M312.335 157.154C312.335 157.154 261.896 188.963 261.896 199.049L302.247 232.409L316.215 216.893L314.663 240.167L358.118 248.701C358.118 248.701 373.638 189.739 372.862 187.411C372.086 185.084 369.758 150.948 369.758 150.948L312.335 157.154Z" fill="#2F2E41"/>
<path d="M276.639 277.407L254.135 282.062L258.134 298.495C260.102 306.584 260.326 314.998 258.791 323.18V323.18C258.791 323.18 282.071 329.387 282.071 326.283C282.071 323.18 276.639 310.767 278.191 302.233C279.743 293.699 276.639 277.407 276.639 277.407Z" fill="#7508A2"/>
<path d="M288.279 335.593C287.503 332.49 281.056 318.42 280.787 320.8C280.519 323.18 268.103 327.059 263.447 322.404C263.447 322.404 257.24 316.974 254.912 322.404C252.584 327.835 247.928 337.145 247.928 337.145C247.928 337.145 226.976 347.231 230.08 352.661C230.708 353.76 232.447 354.223 234.822 354.264C234.766 354.407 234.737 354.56 234.736 354.714V355.264C234.736 355.602 234.871 355.927 235.11 356.167C235.35 356.406 235.674 356.54 236.013 356.54H236.563C236.902 356.54 237.226 356.406 237.466 356.167C237.705 355.927 237.84 355.602 237.84 355.264V354.714C237.839 354.516 237.791 354.321 237.7 354.145C238.335 354.089 238.993 354.016 239.67 353.927C239.491 354.15 239.393 354.428 239.392 354.714V355.264C239.392 355.602 239.526 355.927 239.766 356.167C240.005 356.406 240.33 356.54 240.669 356.54H241.219C241.558 356.54 241.882 356.406 242.122 356.167C242.361 355.927 242.496 355.602 242.496 355.264V354.714C242.495 354.487 242.434 354.263 242.318 354.068C242.201 353.872 242.035 353.712 241.835 353.602C243.621 353.304 245.486 352.925 247.339 352.505C247.218 352.703 247.153 352.93 247.152 353.162V353.712C247.152 354.051 247.286 354.375 247.526 354.615C247.765 354.854 248.09 354.989 248.429 354.989H248.979C249.317 354.989 249.642 354.854 249.882 354.615C250.121 354.375 250.256 354.051 250.256 353.712V353.162C250.256 352.915 250.184 352.674 250.049 352.467C249.914 352.26 249.722 352.097 249.497 351.997C250.887 351.658 252.249 351.305 253.546 350.955C253.425 351.152 253.361 351.379 253.36 351.611V352.16C253.36 352.499 253.494 352.824 253.734 353.063C253.973 353.303 254.298 353.437 254.637 353.437H255.187C255.525 353.437 255.85 353.303 256.09 353.063C256.329 352.824 256.464 352.499 256.464 352.16V351.611C256.463 351.339 256.375 351.075 256.214 350.857C256.052 350.638 255.825 350.478 255.566 350.398C260.123 349.114 263.447 348.006 263.447 348.006C263.447 348.006 267.308 346.602 271.983 344.704V345.178C271.983 345.517 272.118 345.841 272.357 346.081C272.597 346.32 272.922 346.455 273.26 346.455H273.81C274.149 346.455 274.474 346.32 274.713 346.081C274.953 345.841 275.087 345.517 275.087 345.178V344.628C275.087 344.435 275.042 344.244 274.956 344.07C274.871 343.897 274.747 343.745 274.593 343.627C275.532 343.232 276.479 342.827 277.415 342.414V342.851C277.415 343.189 277.55 343.514 277.789 343.753C278.029 343.993 278.354 344.127 278.692 344.127H279.242C279.581 344.127 279.906 343.993 280.145 343.753C280.385 343.514 280.519 343.189 280.519 342.851V342.301C280.519 342.095 280.469 341.893 280.374 341.711C280.279 341.529 280.141 341.373 279.973 341.256C280.985 340.783 281.96 340.312 282.86 339.849C282.856 339.891 282.847 339.931 282.847 339.973V340.523C282.847 340.862 282.982 341.186 283.221 341.426C283.461 341.665 283.785 341.8 284.124 341.8H284.674C285.013 341.8 285.338 341.665 285.577 341.426C285.817 341.186 285.951 340.862 285.951 340.523V339.973C285.951 339.679 285.849 339.394 285.663 339.166C285.477 338.938 285.218 338.781 284.929 338.722C287.099 337.463 288.467 336.345 288.279 335.593Z" fill="#2F2E41"/>
<path d="M350.746 328.611L326.163 327.059C326.163 327.059 327.652 352.661 324.673 361.195C321.693 369.729 323.183 372.833 323.183 372.833L344.786 374.384L350.746 328.611Z" fill="#7508A2"/>
<path d="M351.048 385.195C350.937 381.998 347.565 366.893 346.807 369.165C346.048 371.437 333.096 372.643 329.513 367.12C329.513 367.12 324.574 360.514 321.165 365.34C317.755 370.166 311.26 378.301 311.26 378.301C311.26 378.301 288.666 383.797 290.569 389.756C290.954 390.961 292.558 391.776 294.872 392.311C294.788 392.44 294.728 392.583 294.694 392.734L294.58 393.271C294.509 393.603 294.573 393.948 294.757 394.232C294.942 394.516 295.231 394.716 295.562 394.786L296.1 394.901C296.431 394.972 296.777 394.908 297.061 394.724C297.345 394.539 297.545 394.25 297.615 393.919L297.73 393.381C297.77 393.187 297.764 392.986 297.712 392.795C298.345 392.873 299.004 392.938 299.685 392.993C299.463 393.174 299.309 393.425 299.248 393.704L299.133 394.242C299.063 394.573 299.127 394.919 299.311 395.203C299.495 395.487 299.785 395.686 300.116 395.757L300.654 395.872C300.985 395.942 301.331 395.878 301.615 395.694C301.899 395.51 302.098 395.22 302.169 394.889L302.284 394.351C302.331 394.129 302.317 393.898 302.244 393.682C302.171 393.467 302.042 393.275 301.87 393.127C303.679 393.207 305.581 393.225 307.481 393.201C307.321 393.369 307.21 393.578 307.161 393.804L307.046 394.342C306.976 394.673 307.039 395.019 307.224 395.303C307.408 395.587 307.698 395.786 308.029 395.857L308.567 395.972C308.898 396.042 309.244 395.978 309.528 395.794C309.812 395.61 310.011 395.32 310.082 394.989L310.197 394.451C310.248 394.21 310.228 393.959 310.139 393.729C310.051 393.498 309.897 393.298 309.697 393.154C311.127 393.112 312.534 393.051 313.875 392.978C313.716 393.146 313.605 393.355 313.556 393.581L313.441 394.119C313.371 394.45 313.434 394.795 313.619 395.08C313.803 395.364 314.093 395.563 314.424 395.634L314.962 395.748C315.293 395.819 315.639 395.755 315.923 395.571C316.207 395.386 316.406 395.097 316.477 394.766L316.592 394.228C316.648 393.962 316.617 393.686 316.505 393.439C316.392 393.191 316.203 392.987 315.966 392.855C320.691 392.549 324.174 392.159 324.174 392.159C324.174 392.159 328.243 391.59 333.21 390.709L333.112 391.172C333.041 391.503 333.105 391.849 333.289 392.133C333.473 392.417 333.763 392.616 334.094 392.687L334.632 392.802C334.963 392.872 335.309 392.808 335.593 392.624C335.877 392.44 336.077 392.15 336.147 391.819L336.262 391.281C336.302 391.092 336.298 390.896 336.25 390.708C336.203 390.521 336.113 390.346 335.988 390.199C336.988 390.009 337.999 389.809 339.001 389.601L338.91 390.028C338.839 390.359 338.903 390.705 339.087 390.989C339.271 391.273 339.561 391.472 339.892 391.543L340.43 391.658C340.761 391.728 341.107 391.664 341.391 391.48C341.675 391.296 341.875 391.006 341.945 390.675L342.06 390.137C342.103 389.937 342.096 389.728 342.041 389.531C341.986 389.333 341.884 389.151 341.743 389.001C342.832 388.751 343.884 388.492 344.86 388.228C344.848 388.267 344.831 388.305 344.822 388.346L344.707 388.884C344.637 389.215 344.701 389.561 344.885 389.845C345.069 390.129 345.359 390.328 345.69 390.399L346.228 390.514C346.559 390.584 346.905 390.52 347.189 390.336C347.473 390.152 347.673 389.862 347.743 389.531L347.858 388.993C347.919 388.706 347.879 388.405 347.745 388.144C347.61 387.882 347.389 387.675 347.119 387.557C349.504 386.777 351.075 385.97 351.048 385.195Z" fill="#2F2E41"/>
<path d="M312.334 56.2977C324.763 56.2977 334.838 46.2246 334.838 33.7988C334.838 21.3731 324.763 11.3 312.334 11.3C299.906 11.3 289.831 21.3731 289.831 33.7988C289.831 46.2246 299.906 56.2977 312.334 56.2977Z" fill="#FFB8B8"/>
<path d="M332.51 31.4714C332.51 31.4714 344.926 46.9878 351.134 46.212L323.974 67.1592C323.974 67.1592 320.871 53.9702 316.991 52.4185C313.111 50.8669 332.51 31.4714 332.51 31.4714Z" fill="#FFB8B8"/>
<path d="M381.009 146.681C381.009 146.681 381.007 61.0718 366.643 53.6972C352.288 46.3269 342.791 42.1204 342.791 42.1204C342.58 44.9294 341.782 47.6628 340.448 50.1441C339.114 52.6253 337.274 54.7991 335.047 56.5251C330.287 60.1992 325.545 63.2457 322.896 63.2554L322.81 62.8921L322.487 61.9698L314.662 74.1415C314.662 74.1415 307.679 75.6932 305.351 80.3481C304.091 82.8664 310.03 108.218 306.515 131.164C303.532 150.633 290.963 168.207 290.607 170.343C290.005 173.955 305.281 164.492 312.16 160.068C312.262 160.182 312.335 160.258 312.335 160.258C312.335 160.258 308.455 161.809 316.214 159.482C320.611 158.163 326.75 158.09 331.247 158.274C331.241 159.622 331.273 160.693 331.346 161.421C332.122 169.18 370.921 180.041 376.353 177.714C381.785 175.386 381.009 146.681 381.009 146.681Z" fill="#2F2E41"/>
<path d="M353.85 176.162C353.85 176.162 330.57 197.109 346.09 200.988C361.61 204.867 367.818 179.265 367.818 179.265L353.85 176.162Z" fill="#FFB8B8"/>
<path d="M326.69 230.47C326.69 230.47 337.554 220.384 343.762 225.815C349.97 231.245 353.85 235.124 353.85 235.124C353.85 235.124 336.002 224.263 326.69 230.47Z" fill="#7508A2"/>
<path d="M329.512 351.147C329.512 351.147 335.635 345.463 339.134 348.524C342.633 351.585 344.82 353.771 344.82 353.771C344.82 353.771 334.761 347.649 329.512 351.147Z" fill="#2F2E41"/>
<path d="M260.912 298.272C260.912 298.272 265.116 291.051 269.354 292.962C273.593 294.872 276.322 296.327 276.322 296.327C276.322 296.327 264.915 293.398 260.912 298.272Z" fill="#2F2E41"/>
<path d="M375.146 64.342C367.454 48.883 344.049 57.3143 347.852 74.1567C347.908 74.4078 347.968 74.6613 348.03 74.9174C352.038 90.8605 358.589 106.054 367.43 119.915L358.894 157.93L349.582 177.326L368.981 181.981L393.037 123.794C393.037 123.794 386.402 86.9634 375.146 64.342Z" fill="#2F2E41"/>
<path opacity="0.2" d="M363.938 121.079L349.194 176.938L361.61 150.56L363.938 121.079Z" fill="black"/>
<path d="M326.467 7.57305C326.467 7.57305 314.028 -5.52009 301.507 2.72547C288.987 10.971 283.047 18.9808 284.275 24.5578C285.502 30.1349 289.136 37.8923 289.136 37.8923C289.136 37.8923 286.878 26.3383 297.245 25.4833C307.613 24.6282 321.936 17.7687 321.936 17.7687L331.625 38.4551C331.625 38.4551 332.995 33.6614 336.792 35.0363C340.59 36.4113 337.646 9.10663 326.467 7.57305Z" fill="#2F2E41"/>
<path d="M246.764 303.397C246.763 305.362 246.599 307.324 246.275 309.262V309.27C245.384 314.483 243.32 319.427 240.238 323.726C237.157 328.026 233.139 331.57 228.488 334.09C223.836 336.61 218.673 338.041 213.388 338.275C208.102 338.508 202.833 337.538 197.977 335.438H197.97C196.533 334.818 195.141 334.1 193.803 333.289C189.656 330.786 186.074 327.449 183.285 323.489C180.496 319.529 178.56 315.033 177.6 310.286C177.15 308.017 176.924 305.71 176.925 303.397C176.925 302.342 176.971 301.294 177.064 300.262V300.255C177.87 291.346 182.065 283.086 188.784 277.179C195.503 271.273 204.233 268.17 213.174 268.511C222.114 268.853 230.582 272.612 236.831 279.014C243.08 285.416 246.633 293.971 246.756 302.916V302.923C246.764 303.086 246.764 303.234 246.764 303.397Z" fill="#7508A2"/>
<path d="M220.44 291.736H204.801L196.98 278.198L202.285 269.006L202.595 268.923C209.309 267.129 216.401 267.327 223.005 269.493L223.286 269.586L228.26 278.198L220.44 291.736ZM205.696 290.184H219.544L226.468 278.198L222.239 270.876C216.103 268.93 209.544 268.744 203.307 270.339L198.773 278.198L205.696 290.184Z" fill="white"/>
<path d="M219.664 319.666H204.025L196.205 306.125L204.025 292.584H219.664L227.484 306.125L219.664 319.666ZM204.92 318.115H218.768L225.692 306.125L218.768 294.135H204.92L197.997 306.125L204.92 318.115Z" fill="white"/>
<path d="M211.844 339.084C206.967 339.094 202.141 338.094 197.668 336.149L196.871 335.803L204.8 322.063H220.44L228.035 335.217L227.281 335.579C222.467 337.899 217.189 339.097 211.844 339.084V339.084ZM199.089 335.063C203.356 336.779 207.925 337.617 212.523 337.526C217.122 337.435 221.654 336.418 225.85 334.534L219.544 323.614H205.697L199.089 335.063Z" fill="white"/>
<path d="M246.047 305.701H230.408L222.588 292.162L230.408 278.617H237.529L237.759 278.858C243.934 285.354 247.426 293.944 247.532 302.906V303.131L246.047 305.701ZM231.304 304.149H245.152L245.977 302.721C245.827 294.336 242.58 286.303 236.86 280.168H231.304L224.38 292.163L231.304 304.149Z" fill="white"/>
<path d="M230.192 334.027L222.588 320.868L230.408 307.322H246.047L247.051 309.052L247.04 309.399C246.192 314.34 244.315 319.047 241.53 323.216C238.745 327.384 235.115 330.921 230.875 333.596L230.192 334.027ZM224.38 320.868L230.724 331.844C234.567 329.292 237.854 325.988 240.387 322.132C242.92 318.277 244.646 313.949 245.463 309.409L245.152 308.874H231.304L224.38 320.868Z" fill="white"/>
<path d="M194.079 334.362L193.401 333.953C189.164 331.392 185.504 327.98 182.653 323.933C179.802 319.885 177.823 315.29 176.839 310.438L176.782 310.151L178.417 307.322H194.057L201.877 320.868L194.079 334.362ZM178.42 310.419C179.362 314.873 181.184 319.094 183.779 322.836C186.374 326.578 189.689 329.764 193.531 332.208L200.084 320.868L193.16 308.874H179.313L178.42 310.419Z" fill="white"/>
<path d="M194.057 304.149H178.417L176.289 300.471V300.262C177.055 291.47 181.062 283.277 187.532 277.273L187.755 277.065H194.057L201.877 290.611L194.057 304.149ZM179.312 302.597H193.161L200.085 290.611L193.16 278.617H188.368C182.381 284.266 178.647 291.894 177.86 300.087L179.312 302.597Z" fill="white"/>
</svg>
