<?xml version="1.0" encoding="utf-8"?>
<!-- Generator: Adobe Illustrator 24.0.1, SVG Export Plug-In . SVG Version: 6.00 Build 0)  -->
<svg version="1.1" id="Camada_2" xmlns="http://www.w3.org/2000/svg" xmlns:xlink="http://www.w3.org/1999/xlink" x="0px" y="0px"
	 viewBox="0 0 1000 1000" enable-background="new 0 0 1000 1000" xml:space="preserve">
<circle fill="#F3003A" cx="500" cy="500" r="500"/>
<polygon fill="#FFFFFF" points="237.886,192.905 175.073,251.913 301.775,370.94 175.073,370.94 175.073,472.183 471.928,472.183 
	471.928,187.247 369.965,187.247 369.965,302.434 246.06,186.034 "/>
<polygon fill="#FFFFFF" points="813.434,243.496 752.219,180.685 628.743,307.383 628.743,180.685 523.715,180.685 523.715,477.532 
	819.303,477.532 819.303,375.571 699.81,375.571 820.561,251.67 "/>
<polygon fill="#FFFFFF" points="757.75,823.065 820.561,761.849 693.864,638.369 820.561,638.369 820.561,533.338 523.715,533.338 
	523.715,828.935 625.675,828.935 625.675,709.438 749.576,830.193 "/>
<polygon fill="#FFFFFF" points="182.201,767.374 243.417,830.185 366.897,703.487 366.897,830.185 471.928,830.185 471.928,533.338 
	176.331,533.338 176.331,635.298 295.828,635.298 175.073,759.2 "/>
</svg>
