<svg width="160" height="142" viewBox="0 0 160 142" fill="none" xmlns="http://www.w3.org/2000/svg">
<path d="M86.32 88.0255C88.7745 87.3897 91.5543 88.8187 92.4191 91.2113C93.072 92.9134 92.7379 94.939 91.5936 96.3527C90.2048 98.1357 87.6018 98.8415 85.5143 97.9543C83.3786 97.1262 82.0793 94.7248 82.4025 92.4786C82.6296 90.3766 84.2608 88.5106 86.32 88.0255ZM1.53223 93.3373C4.61995 93.3177 7.70767 93.322 10.7932 93.3352C10.7692 102.482 10.8019 111.628 10.7779 120.773C14.5055 120.812 18.2352 120.775 21.9649 120.792C21.9562 123.489 21.9714 126.183 21.9562 128.879C15.1518 128.868 8.34748 128.881 1.54314 128.873C1.53877 117.028 1.55625 105.182 1.53223 93.3373ZM58.952 93.3352C62.0397 93.3242 65.1274 93.3111 68.2152 93.3439C68.1802 102.486 68.2217 111.631 68.1933 120.775C71.9187 120.812 75.644 120.773 79.3694 120.795C79.3607 123.489 79.3694 126.183 79.365 128.877C72.5629 128.875 65.7607 128.877 58.9607 128.875C58.9542 117.028 58.9695 105.182 58.952 93.3352ZM26.8432 104.953C28.8653 102.377 31.8264 100.52 35.0713 99.9886C37.338 99.6346 39.7531 99.7657 41.8495 100.769C43.1597 101.378 44.2777 102.309 45.3717 103.238C45.3848 102.283 45.3783 101.326 45.3826 100.371C48.2149 100.371 51.0471 100.373 53.8793 100.369C53.9099 109.872 53.9121 119.377 53.8772 128.879C50.9969 128.864 48.1166 128.895 45.2363 128.862C45.2451 127.953 45.2407 127.044 45.2538 126.135C43.1291 128.189 40.251 129.456 37.2921 129.563C33.7524 129.727 30.0685 128.562 27.5464 126.01C24.8626 123.349 23.6441 119.527 23.4957 115.815C23.2511 111.95 24.4193 107.988 26.8432 104.953ZM37.8271 107.89C36.161 108.119 34.5713 108.998 33.569 110.361C31.3765 113.328 31.8679 117.969 34.6521 120.395C37.3336 122.658 41.7097 122.079 43.9698 119.486C46.4002 116.746 46.1775 112.107 43.5287 109.588C42.0329 108.161 39.8536 107.577 37.8271 107.89ZM100.042 102.792C104.017 99.0796 110.843 98.6885 115.003 102.303C115.461 102.694 115.896 103.111 116.324 103.537C116.324 102.48 116.317 101.422 116.33 100.367C119.073 100.38 121.814 100.367 124.556 100.373C124.55 108.805 124.561 117.237 124.55 125.669C124.543 128.982 123.427 132.38 121.058 134.755C118.307 137.582 114.286 138.834 110.415 138.9C106.571 138.972 102.538 137.995 99.5706 135.445C97.6359 133.815 96.3737 131.455 96.0046 128.958C99.2103 128.962 102.416 128.932 105.622 128.973C106.298 129.83 107.004 130.793 108.139 131.058C109.712 131.41 111.402 131.353 112.932 130.831C114.173 130.394 115.317 129.476 115.732 128.191C116.066 127.053 115.95 125.851 115.92 124.682C113.544 126.67 110.52 128.058 107.375 127.944C104.397 127.876 101.459 126.629 99.3893 124.476C96.6554 121.697 95.4085 117.714 95.4653 113.868C95.498 109.786 96.9829 105.582 100.042 102.792ZM108.122 107.431C106.833 107.774 105.707 108.626 104.999 109.751C103.846 111.561 103.593 113.848 104.041 115.92C104.427 117.683 105.525 119.363 107.198 120.135C109.714 121.293 113.002 120.629 114.773 118.463C116.04 116.964 116.562 114.917 116.3 112.985C116.105 111.073 115.166 109.146 113.476 108.137C111.884 107.197 109.902 106.985 108.122 107.431ZM134.94 101.903C137.783 100.035 141.384 99.3659 144.705 100.102C146.808 100.563 148.588 101.866 150.171 103.273C150.169 102.305 150.169 101.337 150.175 100.369C153.012 100.384 155.848 100.354 158.687 100.384V128.871C155.794 128.879 152.9 128.873 150.007 128.877C150.005 127.972 150.005 127.068 150.005 126.163C149.031 127.05 147.959 127.839 146.762 128.394C143.567 129.939 139.755 129.906 136.459 128.685C133.415 127.555 130.952 125.095 129.668 122.125C128.332 119.06 127.963 115.599 128.421 112.297C129.048 108.139 131.395 104.21 134.94 101.903ZM142.443 107.914C140.296 108.233 138.368 109.708 137.551 111.727C136.348 114.631 137.025 118.367 139.464 120.436C142.165 122.667 146.531 122.055 148.767 119.446C151.188 116.671 150.924 111.993 148.21 109.509C146.679 108.097 144.471 107.56 142.443 107.914ZM83.1843 100.371C86.0514 100.373 88.9186 100.369 91.788 100.373C91.7836 109.874 91.7836 119.374 91.7858 128.875C88.9186 128.877 86.0536 128.873 83.1865 128.877C83.1843 119.374 83.1865 109.874 83.1843 100.371Z" fill="white"/>
<path d="M77.0636 26.4284C79.6622 25.939 82.418 26.2515 84.8201 27.3702C87.9449 28.7992 90.4452 31.5371 91.5676 34.7884C92.7162 38.0376 92.4782 41.7565 90.8972 44.8221C89.4713 47.6496 86.9557 49.9111 83.9881 51.0189C81.4703 51.976 78.649 52.0983 76.057 51.3773C72.7203 50.4683 69.8138 48.1303 68.187 45.08C66.6781 42.3093 66.2807 38.9662 67.0449 35.9072C68.1848 31.1612 72.2617 27.2981 77.0636 26.4284ZM69.8793 32.2341C70.3204 32.02 70.7594 31.7971 71.1961 31.5742C70.6655 32.8415 70.3183 34.2138 70.4449 35.5969C71.552 36.1257 72.7181 36.5386 73.7619 37.1832C72.5587 36.9909 71.373 36.7047 70.1763 36.4753C69.2592 37.5372 68.7329 38.846 68.3617 40.1833C68.1237 39.7201 67.89 39.2525 67.6848 38.7718C67.7 41.4113 68.532 44.0224 70.1043 46.1463C69.9929 45.635 69.8946 45.1215 69.7964 44.608C70.8598 45.5017 72.0587 46.2839 73.4409 46.5636C74.2664 45.6678 75.0306 44.7107 75.9369 43.8935C75.4281 45.0013 74.7686 46.0261 74.1812 47.0924C74.869 48.3291 75.9893 49.2272 77.1685 49.9701C76.6618 50.0444 76.1552 50.1121 75.6486 50.1864C76.9304 50.5186 78.2406 50.8157 79.5727 50.7895C80.8392 50.7895 82.0817 50.4967 83.3024 50.1908C82.8002 50.1165 82.2957 50.0466 81.7935 49.9723C82.9661 49.225 84.0776 48.3291 84.7742 47.099C84.1933 46.0305 83.5273 45.0035 83.0163 43.8979C83.9247 44.7129 84.689 45.6721 85.5166 46.5658C86.8967 46.2796 88.0934 45.4995 89.159 44.608C89.0608 45.1149 88.9625 45.6219 88.8577 46.1288C90.4299 44.018 91.2291 41.4178 91.2772 38.798C91.0479 39.2503 90.8317 39.7091 90.609 40.1658C90.1919 38.8482 89.7071 37.5307 88.7791 36.4775C87.578 36.7113 86.3879 36.9997 85.1782 37.1876C86.2351 36.5518 87.4012 36.1257 88.5126 35.6013C88.6306 34.2159 88.2921 32.8415 87.7571 31.5742C88.1916 31.7971 88.624 32.0156 89.0651 32.2275C87.5737 30.0818 85.3289 28.5742 82.8831 27.7176C83.2675 28.0891 83.6343 28.4802 84.0055 28.867C82.632 28.7424 81.2192 28.8342 79.9439 29.4001C79.7714 30.6303 79.7059 31.8758 79.4657 33.0972C79.2801 31.8736 79.1774 30.639 79.0246 29.411C77.7493 28.8298 76.3277 28.7424 74.9498 28.867C75.3495 28.4365 75.7556 28.0082 76.2317 27.6564C73.7248 28.5195 71.4057 30.0316 69.8793 32.2341Z" fill="#010000"/>
<path d="M69.8794 32.2341C71.4058 30.0316 73.7249 28.5195 76.2317 27.6564C75.7557 28.0082 75.3495 28.4365 74.9499 28.867C76.3278 28.7424 77.7494 28.8298 79.0246 29.411C79.1775 30.639 79.2801 31.8736 79.4657 33.0972C79.706 31.8758 79.7715 30.6303 79.944 29.4001C81.2192 28.8342 82.6321 28.7424 84.0056 28.867C83.6344 28.4802 83.2675 28.0891 82.8832 27.7176C85.3289 28.5742 87.5737 30.0818 89.0652 32.2276C88.6241 32.0156 88.1917 31.7971 87.7572 31.5742C88.2922 32.8416 88.6306 34.216 88.5127 35.6013C87.4012 36.1257 86.2351 36.5518 85.1782 37.1876C86.388 36.9997 87.5781 36.7113 88.7791 36.4775C89.7072 37.5307 90.192 38.8482 90.609 40.1658C90.8318 39.7092 91.048 39.2503 91.2773 38.798C91.2292 41.4179 90.43 44.0181 88.8577 46.1288C88.9626 45.6219 89.0608 45.115 89.1591 44.608C88.0935 45.4995 86.8968 46.2796 85.5167 46.5658C84.6891 45.6721 83.9248 44.7129 83.0164 43.8979C83.5274 45.0035 84.1934 46.0305 84.7743 47.099C84.0777 48.3292 82.9662 49.225 81.7935 49.9723C82.2958 50.0466 82.8002 50.1165 83.3025 50.1908C82.0818 50.4967 80.8393 50.7895 79.5727 50.7895C78.2407 50.8157 76.9305 50.5186 75.6487 50.1864C76.1553 50.1122 76.6619 50.0444 77.1685 49.9701C75.9893 49.2272 74.8691 48.3292 74.1813 47.0924C74.7687 46.0261 75.4281 45.0013 75.9369 43.8935C75.0307 44.7107 74.2664 45.6678 73.441 46.5636C72.0587 46.284 70.8599 45.5017 69.7964 44.608C69.8947 45.1215 69.993 45.635 70.1043 46.1463C68.5321 44.0224 67.7001 41.4113 67.6848 38.7718C67.8901 39.2525 68.1237 39.7201 68.3618 40.1833C68.733 38.8461 69.2592 37.5372 70.1764 36.4753C71.373 36.7047 72.5588 36.991 73.762 37.1832C72.7182 36.5387 71.5521 36.1257 70.445 35.5969C70.3183 34.2138 70.6655 32.8416 71.1962 31.5742C70.7594 31.7971 70.3205 32.02 69.8794 32.2341ZM74.2948 37.2859C74.8757 39.3617 75.6225 41.3895 76.2514 43.45C78.4067 43.4565 80.562 43.4674 82.7151 43.4456C83.3505 41.4047 84.0274 39.3792 84.6891 37.3471C82.9837 36.0383 81.2127 34.8234 79.4941 33.5342C77.7472 34.7666 76.0439 36.0579 74.2948 37.2859Z" fill="white"/>
<path d="M74.2949 37.2859C76.0441 36.0579 77.7473 34.7666 79.4943 33.5342C81.2128 34.8234 82.9838 36.0383 84.6892 37.3471C84.0276 39.3792 83.3506 41.4047 82.7152 43.4456C80.5621 43.4674 78.4068 43.4565 76.2515 43.4499C75.6226 41.3894 74.8758 39.3617 74.2949 37.2859Z" fill="#020001"/>
<path d="M73.4738 0.736693C74.5264 0.417677 75.6138 0.214468 76.7188 0.284389C77.6709 5.29907 78.588 10.3181 79.527 15.335C79.61 15.6911 79.6733 16.2592 79.1448 16.2461C74.5286 17.1005 70.2769 19.8362 67.6849 23.7671C67.3552 24.2347 67.1281 24.7853 66.7023 25.1786C66.1651 25.0672 65.7196 24.7241 65.2479 24.4641C61.6165 22.3424 57.9785 20.2317 54.3427 18.1165C53.7946 17.791 53.2115 17.5156 52.7224 17.1027C52.7158 16.8645 52.7813 16.6416 52.9189 16.4384C57.3518 8.76892 64.9138 2.99821 73.4738 0.736693Z" fill="#7C227C"/>
<path d="M80.4528 4.30705C90.2051 2.71415 100.575 5.74481 107.978 12.2825C108.229 12.4682 108.264 12.8134 108.009 13.0123C104.755 16.8077 101.464 20.5703 98.2039 24.3614C97.9615 24.687 97.5008 25.0584 97.1711 24.6105C94.0178 21.8682 89.8754 20.2972 85.6958 20.3059C84.5909 20.2688 83.5034 20.5091 82.4007 20.4939C81.6167 15.3699 80.883 10.2373 80.1165 5.11115C80.0467 4.81617 80.0336 4.31142 80.4528 4.30705Z" fill="#C32B26"/>
<path d="M47.1518 17.1944C47.451 17.1617 47.7087 17.3845 47.9729 17.4938C52.3184 19.8493 56.6858 22.1611 61.0291 24.5187C61.4462 24.6455 61.4506 25.0934 61.2235 25.3949C58.9743 29.5793 58.5201 34.6967 60.0574 39.1978C60.195 39.6239 60.3937 40.0391 60.4395 40.4914C60.3325 40.7951 59.9679 40.8301 59.7211 40.9655C55.131 42.7179 50.5518 44.4966 45.9683 46.2621C45.6866 46.3473 45.2433 46.5483 45.145 46.1288C41.4415 37.0325 42.1163 26.3279 46.7435 17.6839C46.8359 17.4887 46.9764 17.3203 47.1518 17.1944Z" fill="#3C5399"/>
<path d="M106.882 18.1974C107.12 17.9286 107.458 18.0597 107.653 18.3023C114.835 25.0366 118.835 35.0331 118.204 44.8658C118.241 45.3356 117.66 45.2286 117.37 45.2417C112.348 44.9838 107.321 44.7631 102.3 44.4988C101.789 44.5315 101.851 43.9001 101.857 43.5592C101.966 40.8628 101.405 38.1512 100.289 35.6952C99.3001 33.4337 97.7213 31.5043 95.9766 29.7825C96.267 29.4198 96.5574 29.0592 96.8762 28.7227C100.226 25.2267 103.528 21.6847 106.882 18.1974Z" fill="#D57C2C"/>
<path d="M55.3601 44.8615C55.8536 44.6408 56.3515 44.4179 56.8843 44.3043C57.2905 44.7784 57.498 45.3815 57.784 45.93C59.9721 50.2389 64.0599 53.4312 68.6762 54.7663C68.5801 55.2251 68.484 55.6862 68.353 56.1363C67.0865 60.1371 65.8527 64.1467 64.6015 68.1519C64.3896 68.8183 64.2368 69.5088 63.9354 70.1424C63.7127 70.4549 63.3458 70.2342 63.0554 70.1796C53.6765 67.2451 45.7432 60.0082 42.0244 50.9009V50.7043C46.4223 48.6569 50.9273 46.8368 55.3601 44.8615Z" fill="#5B82BD"/>
<path d="M97.0815 46.4085C97.4047 46.2446 97.7759 46.3342 98.1231 46.3408C103.161 46.7647 108.205 47.099 113.241 47.5425C113.267 47.8069 113.282 48.0735 113.289 48.3423C112.57 58.0766 107.338 67.3631 99.418 73.0551C99.0665 73.3982 98.704 72.9808 98.5118 72.6968C95.5682 68.6435 92.5766 64.6208 89.6417 60.561C89.2814 60.2049 89.6723 59.8421 89.9671 59.6367C93.5287 57.0147 95.994 52.9724 96.7474 48.6154C96.8893 47.8834 96.8522 47.1208 97.0815 46.4085Z" fill="#F8E437"/>
<path d="M84.6388 57.384C84.9227 57.1895 85.1192 57.5741 85.2743 57.7489C88.0279 61.8349 90.7597 65.9384 93.5133 70.0244C93.6443 70.2167 93.7578 70.4199 93.8605 70.6297C93.8736 70.9574 93.5329 71.1017 93.3211 71.2786C89.0651 74.0974 84.1737 75.9481 79.1163 76.6276C78.2603 76.8003 77.389 76.8614 76.5177 76.7609C74.7686 76.7762 73.0129 76.6779 71.2747 76.8789C69.2526 76.4659 67.1672 76.2933 65.2085 75.6072C64.8503 75.5089 65.036 75.0544 65.0775 74.7987C66.4139 70.0026 67.7219 65.1955 69.0561 60.3971C69.067 59.8989 69.5627 59.7263 69.9645 59.9273C73.1745 60.8079 76.6335 60.7249 79.8063 59.722C81.538 59.215 83.1059 58.3104 84.6388 57.384Z" fill="#61A244"/>
</svg>
